<?xml version="1.0" encoding="UTF-8" standalone="no"?>
<!-- Created with Inkscape (http://www.inkscape.org/) -->

<svg
   xmlns:dc="http://purl.org/dc/elements/1.1/"
   xmlns:cc="http://creativecommons.org/ns#"
   xmlns:rdf="http://www.w3.org/1999/02/22-rdf-syntax-ns#"
   xmlns:svg="http://www.w3.org/2000/svg"
   xmlns="http://www.w3.org/2000/svg"
   xmlns:sodipodi="http://sodipodi.sourceforge.net/DTD/sodipodi-0.dtd"
   xmlns:inkscape="http://www.inkscape.org/namespaces/inkscape"
   id="svg3800"
   version="1.1"
   inkscape:version="0.48.4 r9939"
   width="411"
   height="933"
   sodipodi:docname="flickr_67183346@N00_2946721114_p4.png">
  <metadata
     id="metadata3806">
    <rdf:RDF>
      <cc:Work
         rdf:about="">
        <dc:format>image/svg+xml</dc:format>
        <dc:type
           rdf:resource="http://purl.org/dc/dcmitype/StillImage" />
        <dc:title></dc:title>
      </cc:Work>
    </rdf:RDF>
  </metadata>
  <defs
     id="defs3804" />
  <sodipodi:namedview
     pagecolor="#ffffff"
     bordercolor="#666666"
     borderopacity="1"
     objecttolerance="10"
     gridtolerance="10"
     guidetolerance="10"
     inkscape:pageopacity="0"
     inkscape:pageshadow="2"
     inkscape:window-width="640"
     inkscape:window-height="480"
     id="namedview3802"
     showgrid="false"
     inkscape:zoom="0.35772176"
     inkscape:cx="228.05461"
     inkscape:cy="491.27387"
     inkscape:window-x="836"
     inkscape:window-y="303"
     inkscape:window-maximized="0"
     inkscape:current-layer="svg3800" />
  <path
     style="fill:#000000"
     d="m 106.65445,880.42376 c -19.166818,-2.10432 -26.900708,-17.92905 -15.426618,-31.56523 2.12762,-2.52854 2.46165,-3.64924 1.83618,-6.16061 -1.33622,-5.36514 -0.79101,-24.66544 1.03305,-36.56982 0.96915,-6.325 2.11038,-18.25 2.53607,-26.5 0.72419,-14.03481 3.453908,-29.70275 6.005598,-34.47062 2.20555,-4.12111 6.0784,-21.97576 6.49604,-29.94809 0.82425,-15.73387 2.32105,-24.19967 7.17501,-40.58129 0.81484,-2.75 1.83548,-7.025 2.26809,-9.5 0.43261,-2.475 1.30182,-5.76679 1.93157,-7.3151 0.62976,-1.5483 1.14655,-4.9233 1.14844,-7.5 0.002,-2.82806 1.12827,-7.45932 2.84147,-11.6849 3.81438,-9.40815 4.37988,-13.63843 2.51126,-18.78594 -1.96951,-5.42543 -1.97291,-14.46938 -0.009,-22.81301 1.93588,-8.22282 2.03606,-12.28467 0.55251,-22.40105 -0.64526,-4.4 -1.32913,-11.15 -1.51971,-15 -0.19058,-3.85 -0.57105,-11.5 -0.84548,-17 -0.27442,-5.5 -1.06954,-13.13952 -1.76693,-16.9767 l -1.26755,-6.97671 -4.5,-0.78068 c -2.475,-0.42937 -5.73993,-0.51606 -7.25541,-0.19265 -1.58787,0.33886 -4.66538,-0.1414 -7.263,-1.13344 -4.181118,-1.59679 -4.633178,-2.12772 -6.241478,-7.33064 -2.41278,-7.80541 -2.38448,-22.65578 0.0669,-35.10918 0.59545,-3.025 1.1781,-12.025 1.29477,-20 0.3609,-24.66904 2.236528,-66.14614 3.323728,-73.5 0.56918,-3.85 1.05045,-9.925 1.06947,-13.5 0.019,-3.575 0.66385,-9.2 1.43294,-12.5 0.76909,-3.3 1.68729,-8.7 2.04045,-12 0.35315,-3.3 1.06215,-8.025 1.57554,-10.5 0.51339,-2.475 1.37873,-12.6 1.92297,-22.5 1.9082,-34.71114 4.35192,-52.82919 8.65656,-64.18075 1.42227,-3.75059 3.66284,-10.09262 4.97906,-14.09341 6.56428,-19.95292 12.84123,-27.07982 28.74466,-32.63692 5.31467,-1.85709 7.41092,-3.35502 13.02826,-9.3097 5.61562,-5.95285 7.45435,-7.26704 11.40954,-8.1547 8.96436,-2.01188 15.86618,-2.38013 19.56186,-1.04375 5.03939,1.82226 8.22613,0.13891 10.81455,-5.71265 1.62459,-3.67264 1.82226,-5.10864 0.96289,-6.99476 -1.41355,-3.10241 -4.64032,-3.04156 -6.71621,0.12664 -2.406,3.67203 -3.40804,3.07066 -3.40804,-2.04531 l 0,-4.54532 -3.5,0.65661 c -3.79093,0.71118 -4.25003,0.01 -1.9682,-3.00711 1.66414,-2.20019 1.98517,-9.12133 0.46662,-10.05984 -0.55086,-0.34046 -2.35086,0.85827 -4,2.66384 -3.29702,3.60978 -3.79584,2.68138 -1.50506,-2.80122 1.77515,-4.24852 1.30345,-5.3525 -2.30238,-5.38855 l -2.69098,-0.0269 3.20527,-2.7231 c 5.27588,-4.48223 7.07608,-11.25569 8.03245,-30.2231 0.89245,-17.699485 2.1138,-22.172095 7.68703,-28.149895 1.3588,-1.45745 3.87402,-4.93082 5.58936,-7.71861 1.71534,-2.78779 4.93124,-6.50418 7.14644,-8.258649 8.95284,-7.09078 11.16439,-8.169082 18.33945,-8.941892 6.85363,-0.73819 7.17693,-0.666937 15.46116,3.407547 6.3956,3.145581 10.14074,5.87037 15.34118,11.161504 3.784,3.85 7.45308,8.125 8.15349,9.5 0.70042,1.375 1.58559,6.1 1.96703,10.5 0.38145,4.4 1.14365,10.021335 1.69378,12.491865 1.58445,7.11543 -0.68895,24.79239 -4.41904,34.36062 l -3.06123,7.85249 1.68182,6.31165 c 0.92499,3.4714 1.68181,7.22372 1.68181,8.33849 0,3.56531 -1.9931,3.40564 -3.53438,-0.28315 -1.70345,-4.07694 -2.91233,-4.47432 -4.51297,-1.4835 -0.61474,1.14866 -2.72846,3.87137 -4.69714,6.05047 -2.98202,3.30074 -3.55264,4.64549 -3.41895,8.05727 0.19838,5.06275 1.3873,6.56756 5.85044,7.40485 1.91732,0.35969 5.41031,2.31943 7.76219,4.35496 2.35188,2.03554 7.90559,5.44068 12.34158,7.56697 5.03935,2.4155 8.45437,4.71961 9.10207,6.14117 0.59708,1.31044 3.91401,3.7242 7.82238,5.69243 8.46515,4.26298 18.16969,11.49267 21.77936,16.22519 2.3187,3.03997 3.20218,6.20449 5.65643,20.26045 2.64012,15.12044 2.99804,19.98018 3.87825,52.65777 1.01916,37.83589 2.001,54.08522 4.01815,66.5 1.25005,7.69352 0.75349,32.61472 -1.09587,55 -0.4771,5.775 -1.36557,23.31407 -1.97438,38.97571 -0.60881,15.66165 -1.55204,29.01205 -2.09607,29.66756 -0.62466,0.75268 -0.73332,6.68557 -0.29489,16.1009 l 0.69426,14.90905 -3.19303,9.58433 c -3.66134,10.99008 -5.79347,13.75139 -12.08743,15.65441 -2.475,0.74834 -6.975,2.17255 -10,3.16493 -4.55834,1.4954 -5.73161,1.57847 -6.85278,0.48522 -1.89728,-1.85004 -0.62606,-5.0029 2.61201,-6.47827 2.62671,-1.19681 2.65402,-1.2885 0.78965,-2.65176 -3.82568,-2.79741 -6.22442,-1.81255 -7.95488,3.26606 -0.8767,2.57298 -1.594,5.76622 -1.594,7.09609 0,2.81772 -1.70664,9.10556 -6.98247,25.72577 -2.09507,6.6 -4.75964,16.5 -5.92127,22 -3.77968,17.89585 -4.33516,19.93765 -6.7161,24.68668 -5.90862,11.78536 -7.59134,17.91711 -6.99041,25.47266 0.33773,4.24627 0.11451,8.4643 -0.54859,10.36647 -1.62579,4.66373 0.66832,16.16474 3.81382,19.11979 3.12489,2.93567 3.07098,8.10755 -0.16758,16.07769 l -2.5126,6.18354 0.35077,33.62706 0.35078,33.62706 5.69158,6.90016 c 6.74553,8.17793 8.6133,13.40687 9.26533,25.93889 0.44182,8.49169 2.51476,20.19265 4.48162,25.29705 0.48682,1.26338 0.88512,3.41094 0.88512,4.77235 0,3.2273 7.02611,10.85469 12.95985,14.06894 7.50244,4.06399 11.22079,6.6652 15.22919,10.65377 3.09307,3.07777 3.81096,4.51461 3.81096,7.62755 0,4.52569 -0.75351,5.24558 -7.94929,7.59458 -6.68258,2.18148 -30.54357,2.20043 -43.36992,0.0344 -4.49944,-0.75982 -10.65579,-1.68005 -13.68079,-2.04496 -8.22915,-0.9927 -25.34546,-5.79284 -27.83034,-7.80482 -0.91595,-0.74163 -1.27197,-3.27659 -1.14293,-8.13803 0.25229,-9.50498 0.42681,-8.97418 -3.5786,-10.88423 -4.53701,-2.16354 -6.42062,-6.37346 -5.37781,-12.01955 0.4223,-2.2864 0.35808,-6.33571 -0.1427,-8.99845 -1.28696,-6.84308 -2.8394,-37.31983 -2.83517,-55.65865 0.002,-8.525 -0.50866,-19.1 -1.13473,-23.5 -1.86288,-13.09221 -2.6554,-27.21659 -2.27245,-40.5 0.56576,-19.62497 0.0676,-34.79905 -1.69082,-51.5 -2.17539,-20.66156 -2.3272,-35.90062 -0.4861,-48.7951 1.40766,-9.85878 1.60862,-15.56889 1.04539,-29.7049 -0.38349,-9.625 -1.1337,-17.94624 -1.66714,-18.49164 -1.40887,-1.44048 -2.85004,1.3018 -2.88607,5.49164 -0.0165,1.925 -0.69687,6.32818 -1.51183,9.78484 -1.52901,6.48532 -3.85297,25.93154 -4.98527,41.71516 -1.42521,19.86665 -3.51306,30.58612 -9.10935,46.76926 -2.99923,8.67309 -5.88844,18.06449 -6.42045,20.86978 -0.53201,2.8053 -1.64372,7.37831 -2.47046,10.16225 -0.82674,2.78394 -1.50317,6.99858 -1.50317,9.36586 0,2.36728 -0.42776,6.22311 -0.95059,8.5685 -2.00115,8.97722 -4.03894,26.81954 -4.59864,40.26435 -0.32054,7.7 -1.20549,17.6 -1.96654,22 -0.76105,4.4 -1.87369,13.175 -2.47254,19.5 -1.50993,15.94781 -1.49798,15.85151 -3.8925,31.37656 -1.28479,8.33001 -3.63495,18.32266 -5.87973,25 l -3.73946,11.12349 -3.30706,0.0333 c -1.81888,0.0183 -3.67048,0.62133 -4.11466,1.34003 -0.44418,0.7187 -1.04483,5.10929 -1.33479,9.75687 -0.44431,7.12174 -0.96616,9.0836 -3.31956,12.47956 -3.66904,5.29442 -6.83121,6.79458 -16.71886,7.93156 -8.20813,0.94384 -10.15482,0.97348 -16.70507,0.25433 z m 201,-351.51019 c 0,-0.58574 -0.7875,-1.64556 -1.75,-2.35516 -1.63962,-1.2088 -1.60114,-1.42966 0.61006,-3.50173 2.09534,-1.9635 2.28657,-2.78457 1.70489,-7.32007 -0.70161,-5.47065 -2.8321,-8.11801 -5.38383,-6.68999 -1.1885,0.66511 -7.98737,17.48818 -8.14671,20.15814 -0.0189,0.31717 2.89059,0.62102 6.46559,0.67524 3.99281,0.0605 6.5,-0.31223 6.5,-0.96643 z"
     id="path3810"
     inkscape:connector-curvature="0" />
</svg>
